<?xml version="1.0" standalone="no"?>
<!DOCTYPE svg PUBLIC "-//W3C//DTD SVG 20010904//EN"
 "http://www.w3.org/TR/2001/REC-SVG-20010904/DTD/svg10.dtd">
<svg version="1.0" xmlns="http://www.w3.org/2000/svg"
 width="222.068602pt" height="198.447725pt" viewBox="0 0 222.068602 198.447725"
 preserveAspectRatio="xMidYMid meet">
<metadata>
Created by potrace 1.12, written by Peter Selinger 2001-2015
</metadata>
<g transform="translate(-33.957720,198.887087) scale(0.100000,-0.100000)"
fill="#000000" stroke="none">
<path d="M1565 1974 c-33 -15 -36 -15 58 1 24 5 37 3 37 -3 0 -7 20 -10 53 -7
43 3 46 3 17 -4 -19 -5 -30 -10 -25 -11 6 -2 -15 -6 -45 -9 -40 -4 -54 -10
-52 -20 3 -12 0 -12 -12 -1 -13 10 -22 10 -45 0 -23 -9 -34 -9 -48 0 -16 10
-16 11 0 6 9 -3 30 -1 45 5 15 6 45 15 67 20 l40 8 -45 -4 c-25 -2 -56 -7 -69
-11 -18 -5 -22 -4 -16 5 4 7 -9 2 -29 -11 -20 -13 -36 -27 -36 -32 0 -5 7 -3
15 4 12 10 15 10 15 0 0 -13 -28 -39 -43 -40 -5 0 -5 5 -1 12 4 7 3 8 -4 4
-17 -10 -60 -86 -68 -121 -11 -45 -17 -194 -8 -213 4 -9 9 -28 10 -41 2 -13 8
-29 14 -35 5 -5 10 -17 10 -25 0 -19 80 -154 87 -147 3 3 2 11 -4 18 -5 7 -14
26 -21 41 -11 25 -10 28 13 37 24 9 36 40 15 40 -5 0 -10 8 -10 17 0 15 1 15
13 1 6 -9 18 -18 26 -20 11 -3 11 -7 -3 -20 -9 -9 -16 -26 -16 -36 0 -11 -4
-22 -9 -24 -5 -1 -3 -12 6 -23 15 -20 15 -20 8 2 -5 18 -3 22 9 17 22 -8 20
-37 -3 -54 -20 -14 -19 -36 1 -24 6 4 8 2 5 -4 -4 -5 24 -43 62 -84 55 -58 72
-71 82 -61 7 7 9 16 5 20 -4 4 -11 1 -16 -7 -8 -13 -10 -12 -10 2 0 18 17 34
27 24 3 -3 7 -19 9 -36 3 -23 0 -29 -9 -24 -28 17 21 -31 92 -91 66 -54 81
-62 106 -58 48 9 74 34 64 62 -8 20 -10 21 -25 7 -8 -9 -24 -16 -35 -16 -10 0
-19 -5 -19 -12 0 -6 -11 -1 -26 12 -20 20 -27 22 -34 10 -7 -11 -11 -11 -24
-1 -9 7 -14 17 -11 21 2 4 -7 12 -22 19 -14 6 -23 14 -20 17 7 8 57 -26 57
-38 0 -6 7 -7 16 -4 8 3 24 1 34 -4 15 -8 18 -7 15 8 -2 12 3 18 18 18 12 0
25 -4 29 -10 4 -6 10 -8 13 -5 3 4 -19 27 -49 53 -53 45 -55 46 -69 26 -7 -11
-17 -17 -22 -12 -4 4 -5 -1 -2 -11 6 -15 4 -16 -14 -6 -19 10 -19 12 -4 23 14
10 14 14 -9 35 -13 13 -29 20 -35 16 -11 -6 -32 34 -25 47 3 4 -5 12 -16 18
-11 6 -20 16 -20 22 0 6 8 4 18 -5 10 -10 24 -17 31 -17 7 0 11 -6 8 -13 -3
-8 3 -13 15 -13 17 0 15 6 -16 32 -20 17 -36 35 -36 39 0 13 -104 120 -113
117 -5 -1 -7 8 -6 20 2 13 -4 34 -14 48 -9 13 -18 34 -18 45 -1 18 -2 18 -6 2
-3 -11 -11 -16 -19 -13 -10 4 -14 -3 -15 -22 -1 -34 -11 -56 -27 -60 -15 -3
-8 38 14 78 28 53 35 74 28 89 -4 9 -6 32 -6 51 1 32 -2 27 -13 -25 -2 -11
-13 -29 -23 -40 -22 -24 -33 -51 -24 -59 3 -4 14 8 24 26 l18 33 -7 -30 c-3
-16 -10 -31 -15 -33 -4 -2 -8 -16 -9 -30 -1 -26 -1 -25 -10 6 -5 17 -15 32
-22 32 -7 0 -8 3 -2 8 6 4 19 24 29 45 11 20 23 37 28 37 10 0 9 96 -2 130 -8
25 -8 25 -9 2 -1 -13 -5 -21 -10 -17 -6 3 -6 18 0 38 11 40 11 40 -3 31 -8 -5
-9 -2 -3 12 4 10 8 27 9 36 0 9 4 14 8 12 4 -3 5 3 3 13 -3 10 0 7 7 -6 10
-19 10 -25 0 -29 -14 -4 -16 -32 -2 -32 6 0 10 6 10 13 0 7 14 28 30 47 26 30
30 32 25 12 -6 -21 -5 -23 12 -13 28 14 46 38 38 51 -3 6 3 10 14 10 12 0 20
-5 19 -12 -4 -18 105 -33 145 -20 28 9 25 9 -23 6 -40 -3 -49 -2 -35 5 33 16
72 12 110 -9 35 -20 62 -19 49 1 -3 6 3 5 15 -3 22 -13 28 -28 12 -28 -5 0
-12 6 -15 13 -3 6 -4 3 -3 -8 2 -11 -3 -25 -11 -30 -11 -9 -9 -16 12 -40 14
-17 38 -47 54 -67 26 -33 31 -36 42 -22 7 8 19 13 26 10 9 -3 11 0 7 11 -5 12
-2 15 10 10 10 -4 21 2 30 16 20 30 77 88 107 110 l25 18 -30 -6 c-22 -4 -26
-3 -15 5 8 5 11 10 6 10 -5 0 -17 -7 -27 -16 -16 -14 -19 -14 -37 1 -16 14
-17 21 -8 41 15 33 27 30 20 -6 -4 -19 -2 -30 5 -30 6 0 11 8 11 18 0 14 8 18
38 19 25 0 31 -2 18 -6 -14 -6 -16 -10 -7 -15 7 -5 20 -1 31 9 17 15 27 16 77
7 35 -7 78 -8 108 -3 57 10 71 7 78 -18 4 -16 -2 -18 -44 -17 -34 1 -49 -2
-49 -11 0 -12 14 -18 35 -13 6 1 7 -1 3 -5 -3 -4 4 -22 17 -41 31 -46 45 -115
45 -224 l0 -90 40 0 c28 0 42 5 49 19 6 10 7 21 3 25 -3 4 0 11 7 15 18 12 16
130 -2 149 -12 11 -14 6 -12 -35 3 -48 3 -48 -5 -8 -5 27 -7 10 -5 -54 2 -62
-1 -88 -7 -77 -5 9 -14 13 -20 10 -8 -5 -9 6 -4 37 3 25 3 38 -2 31 -5 -7 -8
14 -8 52 1 40 4 57 8 45 10 -26 28 -15 28 17 0 14 4 22 10 19 6 -3 10 4 10 17
l-1 23 -19 -24 c-22 -26 -26 -21 -8 12 10 19 9 20 -4 10 -12 -11 -15 -5 -17
37 -2 44 0 49 16 43 14 -6 13 -1 -7 24 -14 18 -29 32 -34 32 -5 1 -3 -6 4 -14
7 -9 10 -18 7 -21 -6 -6 -28 30 -26 43 3 20 -2 27 -11 13 -9 -13 -10 -13 -10
0 0 23 -56 53 -81 45 -14 -5 -19 -3 -15 4 9 13 -36 25 -63 16 -29 -9 -15 -28
14 -21 13 3 27 1 31 -5 3 -6 19 -9 35 -5 16 3 29 1 29 -4 0 -6 -33 -11 -72
-11 -40 -1 -62 -4 -48 -6 40 -7 48 -23 13 -23 -18 0 -34 4 -37 9 -8 13 -75 21
-99 12 -25 -9 -50 -4 -41 10 23 37 -68 -38 -99 -81 l-15 -22 -50 50 c-46 46
-123 99 -108 73 4 -6 0 -11 -8 -11 -8 0 -18 -5 -22 -12 -5 -7 -2 -9 7 -6 38
16 54 20 40 10 -11 -8 -11 -10 0 -14 8 -3 1 -4 -16 -3 -16 1 -39 6 -50 10 -19
9 -19 9 4 15 27 6 39 25 19 29 -54 10 -178 7 -203 -5z m339 -113 c-3 -3 -18 8
-34 26 -16 17 -30 30 -32 27 -3 -2 -5 3 -5 11 0 10 14 3 38 -21 21 -21 36 -40
33 -43z m-176 60 c9 -5 3 -8 -17 -7 -17 1 -31 4 -31 9 0 10 32 9 48 -2z m-83
-21 c4 -6 -6 -10 -22 -9 -25 0 -26 1 -8 9 11 5 21 9 22 9 1 1 5 -3 8 -9z m289
-92 c7 -31 66 -71 66 -44 0 7 7 19 15 26 8 7 15 17 15 22 0 6 -7 8 -15 4 -8
-3 -15 -1 -15 4 0 6 5 10 11 10 5 0 7 5 3 11 -4 7 2 9 17 7 32 -4 33 -20 5
-51 -13 -14 -28 -36 -31 -48 -5 -16 -9 -18 -15 -9 -8 13 -11 11 -55 -28 -8 -7
-15 -9 -15 -3 0 5 5 13 10 16 15 9 12 25 -5 25 -8 0 -15 -5 -15 -11 0 -17 -18
-1 -34 31 -8 17 -10 30 -6 30 12 0 31 -36 23 -44 -3 -3 -2 -6 4 -6 21 0 23 31
3 52 -20 21 -20 21 3 33 12 6 23 9 24 6 1 -4 4 -18 7 -33z m477 12 c1 8 5 -3
9 -25 4 -22 10 -53 15 -70 7 -29 7 -29 -8 -10 -9 11 -17 30 -17 43 0 12 -6 22
-12 22 -10 0 -9 3 1 9 9 6 10 11 2 15 -6 4 -11 13 -11 19 0 7 4 6 10 -3 9 -13
10 -13 11 0z m-1013 -52 c0 -41 -8 -68 -19 -68 -8 0 -8 4 1 14 6 8 11 23 10
33 -3 24 -1 43 4 43 3 0 5 -10 4 -22z m1039 -165 c-2 -16 -4 -3 -4 27 0 30 2
43 4 28 2 -16 2 -40 0 -55z m-1040 -27 c-7 -15 -16 -21 -21 -16 -6 6 -4 15 4
25 19 23 29 18 17 -9z m1067 -78 c7 -5 5 -8 -6 -8 -19 0 -27 17 -19 45 5 18 6
17 9 -5 2 -14 9 -28 16 -32z m-904 -141 c0 -7 17 -27 37 -44 21 -18 30 -30 21
-27 -11 4 -18 1 -18 -6 0 -6 -4 -9 -9 -6 -5 4 -7 -4 -3 -16 5 -21 4 -22 -11
-9 -20 16 -22 37 -4 45 8 3 6 9 -7 20 -11 9 -16 16 -10 16 5 1 -1 9 -14 19
-15 13 -18 21 -10 24 17 6 28 -1 28 -16z m0 -119 c-1 -8 -6 -6 -15 6 -20 26
-19 42 0 22 8 -8 15 -21 15 -28z m89 -49 c3 -11 -1 -10 -19 2 -13 9 -26 22
-29 30 -3 11 1 10 19 -2 13 -9 26 -22 29 -30z m-25 -28 c-6 -6 -34 20 -34 32
0 6 8 2 19 -9 10 -10 17 -21 15 -23z m200 -71 c8 0 20 -8 27 -17 13 -16 12
-17 -3 -4 -10 7 -18 10 -18 7 0 -4 -9 -2 -20 4 -11 6 -20 18 -20 28 1 16 1 16
11 0 5 -10 16 -18 23 -18z m-34 -19 c0 -5 8 -12 18 -14 14 -4 14 -5 1 -6 -9 0
-22 6 -29 14 -9 10 -9 15 -1 15 6 0 11 -4 11 -9z m44 -87 c4 -11 2 -12 -14 -1
-11 6 -20 15 -20 19 0 12 28 -3 34 -18z"/>
<path d="M2145 1980 c3 -5 16 -10 28 -9 21 0 21 1 2 9 -28 12 -37 12 -30 0z"/>
<path d="M2098 1972 c-9 -2 -16 -11 -15 -22 1 -15 5 -16 26 -9 13 6 30 8 38 5
7 -3 13 -2 13 3 0 12 -42 28 -62 23z"/>
<path d="M2180 1880 l-35 -7 45 -2 c25 0 52 4 60 9 12 8 10 9 -10 9 -14 -1
-41 -5 -60 -9z"/>
<path d="M2285 1880 c-19 -8 -19 -9 2 -9 12 -1 25 4 28 9 7 12 -2 12 -30 0z"/>
<path d="M1553 1858 c-19 -9 -38 -36 -31 -44 2 -1 18 11 36 27 34 30 32 35 -5
17z"/>
<path d="M1773 1850 c20 -11 39 -20 42 -20 3 0 -3 9 -12 20 -10 11 -29 20 -43
20 -22 0 -21 -2 13 -20z"/>
<path d="M2481 1820 c-1 -23 15 -45 23 -31 4 6 3 11 -3 11 -5 0 -12 8 -14 18
-3 12 -5 13 -6 2z"/>
<path d="M1460 1784 c0 -16 -4 -23 -12 -18 -7 4 -8 3 -4 -5 4 -6 12 -9 17 -6
5 4 9 1 9 -4 0 -6 -4 -11 -9 -11 -6 0 -6 -12 -1 -29 4 -16 6 -32 4 -35 -2 -3
-1 -3 3 0 11 8 12 134 1 134 -4 0 -8 -12 -8 -26z"/>
<path d="M1497 1793 c-4 -3 -7 -16 -6 -27 0 -19 1 -19 10 3 10 24 8 36 -4 24z"/>
<path d="M2188 1442 c3 -46 10 -82 19 -90 17 -18 11 -38 -11 -34 -9 2 -16 -2
-16 -8 0 -5 3 -9 8 -7 8 2 12 -6 12 -28 0 -9 -9 -15 -24 -15 -30 0 -43 17 -19
23 13 3 10 5 -7 6 -14 1 -46 4 -73 7 -33 4 -53 2 -64 -7 -10 -8 -14 -9 -10 -2
4 6 3 14 -3 18 -5 3 -10 -2 -11 -12 0 -16 -1 -16 -9 2 -6 14 -9 2 -9 -42 l-1
-63 48 -2 47 -1 -50 -8 c-37 -5 -20 -7 63 -5 61 1 112 -2 112 -6 0 -13 -72
-21 -148 -15 -51 4 -71 3 -62 -4 14 -9 192 -10 218 -1 6 2 12 12 12 22 0 10
-6 21 -12 23 -10 4 -10 6 0 6 7 1 11 5 8 10 -4 5 0 8 6 6 41 -10 58 -19 58
-30 0 -17 -27 -27 -34 -12 -3 7 -3 1 0 -12 4 -16 3 -21 -5 -17 -6 4 -11 0 -11
-9 0 -9 4 -14 9 -11 5 3 8 -21 6 -55 -4 -91 -1 -98 46 -92 38 5 45 0 40 -29 0
-5 3 -8 8 -8 5 0 9 42 8 94 0 52 -4 93 -9 90 -4 -3 -8 -11 -8 -19 0 -17 -30
-29 -31 -12 -3 26 3 42 19 55 19 15 62 16 62 2 0 -7 32 -9 93 -6 110 5 106 4
87 16 -13 9 -13 11 0 20 8 5 11 10 5 10 -5 0 -11 15 -12 33 -4 57 -12 77 -32
77 -15 0 -19 -6 -16 -25 3 -33 15 -45 15 -17 0 12 5 22 10 22 6 0 10 -13 10
-30 0 -24 -4 -30 -22 -31 -65 -3 -94 4 -115 26 -26 28 -30 52 -8 52 9 0 15
-10 15 -24 0 -27 12 -30 34 -8 8 8 22 15 30 15 9 0 16 4 16 9 0 13 -102 20
-124 9 -13 -7 -16 -7 -12 1 4 6 2 11 -4 11 -7 0 -10 7 -6 15 3 8 1 15 -4 15
-6 0 -10 -6 -10 -13 0 -14 -27 -40 -53 -50 -9 -3 -17 -2 -17 4 0 6 -4 7 -10 4
-5 -3 -10 3 -10 14 0 14 9 23 25 27 13 3 29 12 36 20 7 8 20 12 30 9 18 -6 19
0 19 79 l0 86 -78 -1 -79 -1 5 -76z m132 6 c0 -45 -3 -59 -10 -48 -15 24 -10
110 6 110 2 0 4 -28 4 -62z m-80 22 l7 25 8 -27 c4 -16 4 -40 0 -55 -5 -22 -8
-24 -17 -12 -7 10 -8 3 -4 -25 5 -35 4 -37 -8 -20 -22 33 -28 75 -14 108 13
31 13 31 17 6 l4 -25 7 25z m-142 -256 c-2 -2 -18 -5 -36 -9 -33 -5 -46 10
-14 17 17 4 55 -2 50 -8z m292 -9 c9 -8 34 -16 56 -17 38 -1 38 -1 -11 -8 -46
-7 -45 -7 18 -5 74 3 98 -9 39 -19 -71 -11 -102 -7 -128 19 -13 14 -28 24 -32
24 -4 -1 -18 -1 -31 0 -20 1 -22 3 -10 17 16 19 72 13 99 -11z"/>
<path d="M1720 1175 c0 -8 8 -15 18 -15 10 0 24 -6 32 -12 12 -11 12 -10 0 5
-21 28 -50 41 -50 22z"/>
<path d="M2187 1109 c4 -15 8 -17 14 -8 8 14 3 29 -11 29 -4 0 -6 -9 -3 -21z"/>
<path d="M2188 1008 c-4 -61 0 -86 9 -60 3 6 9 12 14 12 6 0 7 -4 4 -10 -3 -5
-2 -10 4 -10 5 0 13 5 16 10 3 6 1 10 -4 10 -6 0 -11 20 -11 44 0 25 -6 48
-14 55 -12 10 -15 2 -18 -51z"/>
<path d="M1996 1038 c4 -7 3 -8 -5 -4 -13 8 -44 -12 -36 -24 2 -4 -13 -24 -35
-44 -21 -20 -42 -31 -45 -26 -3 6 -11 10 -17 10 -6 0 -6 -6 2 -15 8 -10 21
-13 33 -9 16 5 19 3 14 -10 -9 -22 12 -20 43 4 25 19 25 19 5 34 -19 15 -18
15 15 12 20 -2 34 -9 32 -15 -2 -9 3 -9 19 0 15 8 19 8 15 0 -4 -6 -3 -11 3
-11 13 0 26 21 27 45 0 11 4 30 8 43 7 21 5 22 -39 22 -32 0 -44 -3 -39 -12z"/>
<path d="M1964 912 c-6 -4 -13 -15 -17 -25 -5 -15 -2 -14 23 5 17 12 30 23 30
25 0 6 -25 3 -36 -5z"/>
<path d="M342 573 l3 -198 38 -3 37 -3 0 90 0 91 80 0 80 0 0 -90 0 -90 40 0
40 0 0 200 0 200 -40 0 -39 0 -3 -76 -3 -76 -75 -1 -75 -1 -3 77 -3 77 -40 0
-39 0 2 -197z"/>
<path d="M750 570 l0 -200 150 0 150 0 0 35 0 35 -110 0 -110 0 0 55 0 55 100
0 100 0 0 35 0 35 -100 0 -100 0 0 45 0 45 105 0 105 0 0 30 0 30 -145 0 -145
0 0 -200z"/>
<path d="M1163 582 c-40 -104 -73 -194 -73 -201 0 -8 13 -11 38 -9 34 3 38 7
52 46 l14 42 84 0 83 0 19 -45 c18 -43 21 -45 60 -45 23 0 40 4 38 9 -1 4 -37
94 -78 199 l-75 192 -45 0 -45 0 -72 -188z m145 26 c12 -35 22 -66 22 -70 0
-5 -22 -8 -50 -8 -27 0 -50 4 -50 8 0 17 42 132 49 132 3 0 16 -28 29 -62z"/>
<path d="M1530 570 l0 -200 140 0 140 0 0 35 0 35 -100 0 -100 0 0 165 0 165
-40 0 -40 0 0 -200z"/>
<path d="M1800 740 l0 -30 60 0 60 0 0 -170 0 -170 40 0 40 0 0 170 0 170 60
0 60 0 0 30 0 30 -160 0 -160 0 0 -30z"/>
<path d="M2170 569 l0 -200 38 3 37 3 3 88 3 87 79 0 80 0 0 -91 0 -90 38 3
37 3 3 198 2 197 -40 0 -40 0 0 -77 0 -78 -78 0 -77 0 -3 78 -3 77 -39 0 -40
0 0 -201z"/>
<path d="M1336 265 c-28 -26 -33 -60 -13 -86 16 -22 95 -61 107 -54 5 3 7 0 4
-8 -3 -8 -1 -18 5 -22 16 -9 13 -31 -5 -49 -17 -18 -70 -21 -107 -7 -22 8 -24
7 -20 -10 6 -20 27 -24 93 -20 36 2 80 38 80 66 0 23 -47 71 -88 89 -41 19
-66 55 -56 81 8 19 44 28 89 23 24 -3 35 0 35 9 0 9 -15 13 -49 13 -37 0 -54
-5 -75 -25z"/>
<path d="M1480 277 c0 -10 13 -14 43 -13 l42 1 3 -127 c1 -71 7 -128 12 -128
5 0 11 55 12 122 l3 123 39 5 c22 3 41 11 44 18 3 9 -21 12 -97 12 -78 0 -101
-3 -101 -13z"/>
<path d="M1750 270 c-15 -28 -100 -242 -100 -252 0 -4 6 -8 13 -8 8 0 19 18
26 40 l12 40 68 0 68 0 12 -40 c7 -23 18 -40 26 -40 18 0 18 -1 4 39 -6 17
-15 31 -21 31 -5 0 -6 4 -3 10 3 5 0 20 -7 32 -6 13 -13 28 -15 33 -9 39 -31
84 -37 78 -4 -4 -4 0 0 10 3 10 1 17 -6 17 -6 0 -9 4 -6 9 3 5 -1 11 -9 15 -9
3 -19 -3 -25 -14z m46 -77 c10 -32 20 -64 22 -71 4 -13 -94 -18 -101 -4 -5 9
43 132 52 132 4 0 16 -26 27 -57z"/>
<path d="M1860 280 c0 -8 46 -15 73 -11 4 0 7 -58 7 -129 0 -108 3 -130 15
-130 12 0 15 23 17 128 l3 127 31 -3 c19 -2 36 3 44 12 11 14 2 16 -89 16 -61
0 -101 -4 -101 -10z"/>
<path d="M2079 278 c0 -7 0 -58 1 -113 1 -105 17 -150 53 -150 9 0 19 -3 22
-7 11 -11 78 4 97 22 28 26 39 76 37 173 -1 66 -5 87 -15 87 -11 0 -14 -22
-14 -101 0 -135 -13 -159 -85 -159 -61 0 -75 30 -75 159 0 61 -4 101 -10 101
-5 0 -10 -6 -11 -12z"/>
<path d="M2353 267 c-25 -25 -30 -71 -10 -91 7 -8 29 -21 47 -31 74 -37 101
-83 61 -105 -25 -13 -87 -13 -112 0 -15 8 -19 7 -19 -4 0 -9 15 -19 38 -25 54
-15 103 1 126 40 18 30 18 32 -1 58 -11 14 -42 38 -69 52 -43 23 -49 31 -52
62 -3 34 -1 36 32 43 20 3 47 3 61 0 18 -5 25 -2 25 9 0 26 -99 19 -127 -8z"/>
</g>
</svg>
